<?xml version="1.0" encoding="UTF-8"?>
<svg width="171px" height="171px" viewBox="0 0 171 171" version="1.1" xmlns="http://www.w3.org/2000/svg" xmlns:xlink="http://www.w3.org/1999/xlink">
    <!-- Generator: Sketch 51.2 (57519) - http://www.bohemiancoding.com/sketch -->
    <title>feature-branches</title>
    <desc>Created with Sketch.</desc>
    <defs></defs>
    <g id="feature-branches" stroke="none" stroke-width="1" fill="none" fill-rule="evenodd">
        <g id="Group-7" transform="translate(68.000000, 33.000000)">
            <polygon id="Rectangle-2" fill="#01AD9F" transform="translate(5.965909, 69.234877) rotate(90.000000) translate(-5.965909, -69.234877) " points="-21.2658725 67.2690632 33.1976907 67.2690632 33.1976907 71.2006901 -21.2658725 71.2006901"></polygon>
            <polygon id="Rectangle-2" fill="#01AD9F" transform="translate(17.857567, 53.702666) rotate(126.000000) translate(-17.857567, -53.702666) " points="-1.81893164 51.7368521 38.0888626 51.7368521 38.0888626 55.6684791 -2.37372951 55.6684791"></polygon>
            <g id="Group-10" transform="translate(6.011592, 99.835616) rotate(90.000000) translate(-6.011592, -99.835616) translate(0.443410, 94.214404)">
                <ellipse id="Oval-3" fill="#01AD9F" cx="5.56362305" cy="5.61660993" rx="5.56362305" ry="5.61660993"></ellipse>
                <ellipse id="Oval-3" fill="#FFFFFF" cx="5.56362305" cy="5.61660993" rx="2.86885231" ry="2.89617471"></ellipse>
            </g>
            <g id="Group-10" transform="translate(6.011592, 37.816720) rotate(90.000000) translate(-6.011592, -37.816720) translate(0.443410, 32.195508)">
                <path d="M5.56362305,11.2332199 C8.63632721,11.2332199 11.1272461,8.71857795 11.1272461,5.61660993 C11.1272461,2.51464192 8.63632721,0 5.56362305,0 C2.49091889,0 0,2.51464192 0,5.61660993 C0,8.71857795 2.49091889,11.2332199 5.56362305,11.2332199 Z" id="Oval-3" fill="#01AD9F"></path>
                <path d="M5.56362305,8.51278465 C7.14804643,8.51278465 8.43247536,7.21612306 8.43247536,5.61660993 C8.43247536,4.01709681 7.14804643,2.72043522 5.56362305,2.72043522 C3.97919967,2.72043522 2.69477074,4.01709681 2.69477074,5.61660993 C2.69477074,7.21612306 3.97919967,8.51278465 5.56362305,8.51278465 Z" id="Oval-3" fill="#FFFFFF"></path>
            </g>
            <g id="Group-5" transform="translate(23.068182, 0.000000)">
                <rect id="Rectangle-2" fill="#01AD9F" transform="translate(5.965909, 23.863665) rotate(90.000000) translate(-5.965909, -23.863665) " x="-8.14087247" y="21.8978511" width="28.2135631" height="3.93162695"></rect>
                <g id="Group-10" transform="translate(6.011592, 5.695508) rotate(90.000000) translate(-6.011592, -5.695508) translate(0.443410, 0.074296)">
                    <path d="M5.56362305,11.2332199 C8.63632721,11.2332199 11.1272461,8.71857795 11.1272461,5.61660993 C11.1272461,2.51464192 8.63632721,0 5.56362305,0 C2.49091889,0 0,2.51464192 0,5.61660993 C0,8.71857795 2.49091889,11.2332199 5.56362305,11.2332199 Z" id="Oval-3" fill="#01AD9F"></path>
                    <path d="M5.56362305,8.51278465 C7.14804643,8.51278465 8.43247536,7.21612306 8.43247536,5.61660993 C8.43247536,4.01709681 7.14804643,2.72043522 5.56362305,2.72043522 C3.97919967,2.72043522 2.69477074,4.01709681 2.69477074,5.61660993 C2.69477074,7.21612306 3.97919967,8.51278465 5.56362305,8.51278465 Z" id="Oval-3" fill="#FFFFFF"></path>
                </g>
            </g>
            <g id="Group-10" transform="translate(6.011592, 68.826168) rotate(90.000000) translate(-6.011592, -68.826168) translate(0.443410, 63.204956)">
                <ellipse id="Oval-3" fill="#01AD9F" cx="5.56362305" cy="5.61660993" rx="5.56362305" ry="5.61660993"></ellipse>
                <ellipse id="Oval-3" fill="#FFFFFF" cx="5.56362305" cy="5.61660993" rx="2.86885231" ry="2.89617471"></ellipse>
            </g>
            <g id="Group-10" transform="translate(29.079774, 37.816720) rotate(90.000000) translate(-29.079774, -37.816720) translate(23.511592, 32.195508)">
                <path d="M5.56362305,11.2332199 C8.63632721,11.2332199 11.1272461,8.71857795 11.1272461,5.61660993 C11.1272461,2.51464192 8.63632721,0 5.56362305,0 C2.49091889,0 0,2.51464192 0,5.61660993 C0,8.71857795 2.49091889,11.2332199 5.56362305,11.2332199 Z" id="Oval-3" fill="#01AD9F"></path>
                <path d="M5.56362305,8.51278465 C7.14804643,8.51278465 8.43247536,7.21612306 8.43247536,5.61660993 C8.43247536,4.01709681 7.14804643,2.72043522 5.56362305,2.72043522 C3.97919967,2.72043522 2.69477074,4.01709681 2.69477074,5.61660993 C2.69477074,7.21612306 3.97919967,8.51278465 5.56362305,8.51278465 Z" id="Oval-3" fill="#FFFFFF"></path>
            </g>
        </g>
    </g>
</svg>