<?xml version="1.0" encoding="UTF-8"?>
<svg width="171px" height="171px" viewBox="0 0 171 171" version="1.1" xmlns="http://www.w3.org/2000/svg" xmlns:xlink="http://www.w3.org/1999/xlink">
    <!-- Generator: Sketch 51.2 (57519) - http://www.bohemiancoding.com/sketch -->
    <title>feature-cdn</title>
    <desc>Created with Sketch.</desc>
    <defs>
        <path d="M5,0 L92,0 C94.7614237,-5.07265313e-16 97,2.23857625 97,5 L97,23 L0,23 L0,5 C-3.38176876e-16,2.23857625 2.23857625,5.07265313e-16 5,0 Z" id="path-1"></path>
        <filter x="-19.6%" y="-73.9%" width="139.2%" height="265.2%" filterUnits="objectBoundingBox" id="filter-2">
            <feOffset dx="0" dy="2" in="SourceAlpha" result="shadowOffsetOuter1"></feOffset>
            <feGaussianBlur stdDeviation="6" in="shadowOffsetOuter1" result="shadowBlurOuter1"></feGaussianBlur>
            <feColorMatrix values="0 0 0 0 0   0 0 0 0 0   0 0 0 0 0  0 0 0 0.0683876812 0" type="matrix" in="shadowBlurOuter1"></feColorMatrix>
        </filter>
        <path d="M0,0 L97,0 L97,18 C97,20.7614237 94.7614237,23 92,23 L5,23 C2.23857625,23 3.38176876e-16,20.7614237 0,18 L0,0 Z" id="path-3"></path>
        <filter x="-19.6%" y="-73.9%" width="139.2%" height="265.2%" filterUnits="objectBoundingBox" id="filter-4">
            <feOffset dx="0" dy="2" in="SourceAlpha" result="shadowOffsetOuter1"></feOffset>
            <feGaussianBlur stdDeviation="6" in="shadowOffsetOuter1" result="shadowBlurOuter1"></feGaussianBlur>
            <feColorMatrix values="0 0 0 0 0   0 0 0 0 0   0 0 0 0 0  0 0 0 0.0683876812 0" type="matrix" in="shadowBlurOuter1"></feColorMatrix>
        </filter>
    </defs>
    <g id="feature-cdn" stroke="none" stroke-width="1" fill="none" fill-rule="evenodd">
        <g id="Group-22" transform="translate(36.000000, 62.000000)">
            <g id="Group-23" transform="translate(0.000000, 52.000000)" stroke="#14232A" stroke-width="0.8">
                <path d="M49.2920204,0.68647423 L49.2920204,13.4407283" id="Path-27"></path>
                <path d="M0.430249135,13.0643286 L98.1537917,13.0643286" id="Path-28"></path>
            </g>
            <g id="Group-21" transform="translate(1.000000, 0.000000)">
                <g id="Rectangle-3">
                    <use fill="black" fill-opacity="1" filter="url(#filter-2)" xlink:href="#path-1"></use>
                    <use fill="#FFFFFF" fill-rule="evenodd" xlink:href="#path-1"></use>
                </g>
                <g id="Group-15" transform="translate(61.000000, 5.500000)">
                    <rect id="Rectangle-5" fill="#01AD9F" opacity="0.900000036" x="0" y="0" width="30" height="5"></rect>
                    <circle id="Oval" fill="#BBC1C4" cx="2" cy="10" r="2"></circle>
                    <circle id="Oval" fill="#BBC1C4" cx="9" cy="10" r="2"></circle>
                </g>
            </g>
            <g id="Group-21" transform="translate(1.000000, 31.000000)">
                <g id="Rectangle-3">
                    <use fill="black" fill-opacity="1" filter="url(#filter-4)" xlink:href="#path-3"></use>
                    <use fill="#FFFFFF" fill-rule="evenodd" xlink:href="#path-3"></use>
                </g>
                <g id="Group-15" transform="translate(61.000000, 5.500000)">
                    <rect id="Rectangle-5" fill="#01AD9F" opacity="0.900000036" x="0" y="0" width="30" height="5"></rect>
                    <circle id="Oval" fill="#BBC1C4" cx="2" cy="10" r="2"></circle>
                    <circle id="Oval" fill="#BBC1C4" cx="9" cy="10" r="2"></circle>
                </g>
            </g>
        </g>
    </g>
</svg>