<?xml version="1.0" encoding="UTF-8"?>
<svg width="171px" height="171px" viewBox="0 0 171 171" version="1.1" xmlns="http://www.w3.org/2000/svg" xmlns:xlink="http://www.w3.org/1999/xlink">
    <!-- Generator: Sketch 51.2 (57519) - http://www.bohemiancoding.com/sketch -->
    <title>feature-continuous-deployment</title>
    <desc>Created with Sketch.</desc>
    <defs>
        <path d="M4.13204752,0.00468419727 L57.6780375,0.00468419727 C59.816484,0.00468419727 61.5500375,1.73823765 61.5500375,3.8766842 L61.5500375,62.7973816 L0.260047522,62.7973816 L0.260047522,3.8766842 C0.260047522,1.73823765 1.99360097,0.00468419727 4.13204752,0.00468419727 Z" id="path-1"></path>
        <filter x="-26.1%" y="-22.3%" width="152.2%" height="151.0%" filterUnits="objectBoundingBox" id="filter-2">
            <feOffset dx="0" dy="2" in="SourceAlpha" result="shadowOffsetOuter1"></feOffset>
            <feGaussianBlur stdDeviation="5" in="shadowOffsetOuter1" result="shadowBlurOuter1"></feGaussianBlur>
            <feColorMatrix values="0 0 0 0 0   0 0 0 0 0   0 0 0 0 0  0 0 0 0.0683876812 0" type="matrix" in="shadowBlurOuter1"></feColorMatrix>
        </filter>
        <path d="M4.13204752,0.00468419724 L57.6780375,0.00468419724 C59.816484,0.00468419724 61.5500375,1.73823765 61.5500375,3.8766842 L61.5500375,5.10134828 L0.260047522,5.10134828 L0.260047522,3.8766842 C0.260047522,1.73823765 1.99360097,0.00468419724 4.13204752,0.00468419724 Z" id="path-3"></path>
        <filter x="-21.2%" y="-215.8%" width="142.4%" height="610.1%" filterUnits="objectBoundingBox" id="filter-4">
            <feOffset dx="0" dy="2" in="SourceAlpha" result="shadowOffsetOuter1"></feOffset>
            <feGaussianBlur stdDeviation="4" in="shadowOffsetOuter1" result="shadowBlurOuter1"></feGaussianBlur>
            <feColorMatrix values="0 0 0 0 0   0 0 0 0 0   0 0 0 0 0  0 0 0 0.0683876812 0" type="matrix" in="shadowBlurOuter1"></feColorMatrix>
        </filter>
    </defs>
    <g id="feature-continuous-deployment" stroke="none" stroke-width="1" fill="none" fill-rule="evenodd">
        <g id="Group-2" transform="translate(17.000000, 64.000000)">
            <g id="Group-27" transform="translate(74.598367, 0.000000)">
                <g id="Rectangle-7">
                    <use fill="black" fill-opacity="1" filter="url(#filter-2)" xlink:href="#path-1"></use>
                    <use fill="#FFFFFF" fill-rule="evenodd" xlink:href="#path-1"></use>
                </g>
                <g id="Group" transform="translate(26.438596, 43.063291)" stroke="#01AD9F" stroke-width="0.64">
                    <path d="M0.154176003,1.53078025 L26.6428194,1.53078025" id="Path-42"></path>
                    <path d="M0.154176003,4.64328025 L26.6428194,4.64328025" id="Path-42"></path>
                    <path d="M0.154176003,7.75578025 L26.6428194,7.75578025" id="Path-42"></path>
                    <path d="M0.154176003,10.8682803 L26.6428194,10.8682803" id="Path-42"></path>
                </g>
                <rect id="Rectangle-17" fill="#01AD9F" opacity="0.373716518" x="6.7376166" y="10.8478496" width="50.0311334" height="28.0125"></rect>
                <rect id="Rectangle-3" fill="#01AD9F" opacity="0.373716518" x="7.03562813" y="42.01875" width="14.8529927" height="14.00625"></rect>
                <g id="Rectangle-7">
                    <use fill="black" fill-opacity="1" filter="url(#filter-4)" xlink:href="#path-3"></use>
                    <use fill="#FFFFFF" fill-rule="evenodd" xlink:href="#path-3"></use>
                </g>
                <path d="M0.283509551,5.15430156 L61.4718841,5.15430156" id="Path-32" stroke="#C5C9CB" stroke-width="0.54208" opacity="0.536439732"></path>
                <g id="Group-3" transform="translate(2.196801, 1.734711)" opacity="0.568694196">
                    <ellipse id="Oval-2" fill="#FA3945" cx="0.830881118" cy="0.827042621" rx="1" ry="1"></ellipse>
                    <ellipse id="Oval-2" fill="#F6BC02" cx="3.44222178" cy="0.827042621" rx="1" ry="1"></ellipse>
                    <ellipse id="Oval-2" fill="#00C7B7" cx="6.05356243" cy="0.827042621" rx="1" ry="1"></ellipse>
                </g>
                <rect id="Rectangle-12" fill="#01AD9F" opacity="0.373716518" x="13.1492178" y="1.57481605" width="35.1934947" height="1.92477517"></rect>
            </g>
            <g id="Group-16" transform="translate(0.000000, 17.514321)">
                <path d="M0.0433816831,23.1222629 L0.0433816831,3.178574 L23.8224005,3.178574 L23.8224005,12.3743351 L23.8224005,23.1222629 C23.0802738,25.0265935 19.117104,25.9787589 11.9328911,25.9787589 C5.36649635,25.9787589 0.0433816831,24.6998621 0.0433816831,23.1222629 Z" id="Combined-Shape" fill="#01AD9F"></path>
                <path d="M23.7952688,12.9727863 C23.7952688,11.3951871 18.4721541,10.1162903 11.9057594,10.1162903 C5.33936467,10.1162903 0.0162499984,11.3951871 0.0162499984,12.9727863" id="Oval-5" stroke="#F7F8F8" stroke-width="0.8" transform="translate(11.905759, 11.544538) scale(1, -1) translate(-11.905759, -11.544538) "></path>
                <path d="M23.9079858,6.24686724 C23.9079858,4.66926808 18.5848712,3.39037127 12.0184765,3.39037127 C5.45208173,3.39037127 0.128967062,4.66926808 0.128967062,6.24686724" id="Oval-5" stroke="#F7F8F8" stroke-width="0.96" transform="translate(12.018476, 4.818619) scale(1, -1) translate(-12.018476, -4.818619) "></path>
                <path d="M23.7952688,19.9105026 C23.7952688,18.3329035 18.4721541,17.0540067 11.9057594,17.0540067 C5.33936467,17.0540067 0.0162499984,18.3329035 0.0162499984,19.9105026" id="Oval-5" stroke="#F7F8F8" stroke-width="0.8" transform="translate(11.905759, 18.482255) scale(1, -1) translate(-11.905759, -18.482255) "></path>
                <ellipse id="Oval-5" fill="#01AD9F" cx="11.9057594" cy="3.178574" rx="11.8895094" ry="2.85649597"></ellipse>
            </g>
            <g id="Group-13" transform="translate(36.943396, 26.662965)" stroke="#14232A" stroke-width="0.64">
                <path d="M0.0719800804,4.00958386 L23.3591009,4.00958386" id="Path-44"></path>
                <polyline id="Rectangle-4" transform="translate(19.569404, 4.009584) rotate(45.000000) translate(-19.569404, -4.009584) " points="16.889683 1.34224296 22.2491242 1.34224296 22.2491242 6.67692476"></polyline>
            </g>
        </g>
    </g>
</svg>